<svg xmlns="http://www.w3.org/2000/svg" viewBox="0 0 17.64 18"><title>Asset 1</title><g id="Layer_2" data-name="Layer 2"><g id="Layer_1-2" data-name="Layer 1"><path id="Shape" d="M17.64,9.2a10.34,10.34,0,0,0-.16-1.84H9v3.48h4.84A4.14,4.14,0,0,1,12,13.56v2.26H15A8.78,8.78,0,0,0,17.64,9.2Z" style="fill:#4285f4"/><path id="Shape-2" data-name="Shape" d="M9,18a8.59,8.59,0,0,0,6-2.18L12,13.56A5.43,5.43,0,0,1,4,10.71H1V13a9,9,0,0,0,8,5Z" style="fill:#34a853"/><path id="Shape-3" data-name="Shape" d="M4,10.71A5.32,5.32,0,0,1,4,7.29V5H1A9,9,0,0,0,1,13l3-2.33Z" style="fill:#fbbc05"/><path id="Shape-4" data-name="Shape" d="M9,3.58a4.86,4.86,0,0,1,3.44,1.35L15,2.34A8.65,8.65,0,0,0,9,0,9,9,0,0,0,1,5L4,7.29A5.36,5.36,0,0,1,9,3.58Z" style="fill:#ea4335"/></g></g></svg>