<svg id="Layer_1" data-name="Layer 1" xmlns="http://www.w3.org/2000/svg" viewBox="0 0 125.03 125.03"><defs><style>.cls-1{fill:#0d1319;}.cls-2{opacity:0.15;}.cls-3{fill:none;stroke:#fff;stroke-miterlimit:10;}</style></defs><title>RS3_Corner-Embossing right</title><polygon class="cls-1" points="117.71 69.71 124.68 76.66 124.68 0.35 48.05 0.35 55.8 8.1 117.7 8.1 117.71 69.71"/><polygon class="cls-1" points="32.72 9.02 24.06 0.39 9.23 0.39 0.33 8.1 9.15 15.82 27.81 15.82 20.98 9 11.1 9 10.15 8.09 11.1 7.17 21.84 7.17 30.48 15.82 48.7 15.8 42.2 9.02 32.72 9.02"/><polygon class="cls-1" points="116.97 124.7 124.68 115.8 124.68 100.97 116.05 92.31 116.05 82.83 109.27 76.32 109.25 94.55 117.9 103.19 117.9 113.92 116.99 114.88 116.07 113.93 116.07 104.05 109.25 97.22 109.25 115.87 116.97 124.7"/><polygon class="cls-1" points="96.63 10.1 77.41 29.76 82.2 34.54 100.04 16.76 109.04 16.78 109.04 26.11 105.82 29.32 110.58 34.15 115.82 28.91 115.82 10.1 96.63 10.1"/><polygon class="cls-1" points="109.03 45.09 108.98 54.46 105.48 57.89 110.36 62.76 115.82 57.31 115.82 41.97 96.64 22.76 91.86 27.55 109.03 45.09"/><polygon class="cls-1" points="83.54 47.67 88.04 43.17 67.86 22.97 63.45 27.56 83.54 47.67"/><polygon class="cls-1" points="124.68 79.69 95.53 50.67 91.03 55.17 117.91 81.95 117.91 91.55 124.68 98.12 124.68 79.69"/><polyline class="cls-1" points="87.46 65.6 87.46 56.06 102.48 41.33 97.58 36.43 80.69 53.24 80.69 72.39 100.73 72.39 103.13 69.99 97.73 64.59 96.72 65.6"/><polygon class="cls-1" points="81.08 16.77 84.22 19.91 89.01 15.11 83.89 9.99 68.55 9.99 53.59 25.2 53.59 45.24 72.73 45.24 75.61 42.36 70.21 36.96 68.73 38.45 60.35 38.51 60.35 28.04 71.29 16.77 81.08 16.77"/><polygon class="cls-1" points="60.42 15.52 45.33 0.39 26.91 0.39 33.48 7.16 43.08 7.16 56 20.1 60.42 15.52"/><g class="cls-2"><polyline class="cls-3" points="48.05 0.35 55.8 8.1 117.7 8.1 117.71 69.71 124.68 76.66"/><polyline class="cls-3" points="0.33 8.1 9.15 15.82 27.81 15.82"/><polyline class="cls-3" points="10.15 8.09 11.1 7.17 21.84 7.17 30.48 15.82 48.7 15.8"/><polyline class="cls-3" points="109.27 76.32 109.25 94.55 117.9 103.19 117.9 113.92 116.99 114.88"/><polyline class="cls-3" points="109.25 97.22 109.25 115.87 116.97 124.7"/><line class="cls-3" x1="77.42" y1="29.76" x2="82.2" y2="34.54"/><polyline class="cls-3" points="100.04 16.76 109.04 16.78 109.04 26.11 105.82 29.32 110.58 34.15"/><polyline class="cls-3" points="91.86 27.55 109.03 45.09 108.98 54.46 105.48 57.89 110.36 62.76"/><line class="cls-3" x1="63.45" y1="27.56" x2="83.54" y2="47.67"/><polyline class="cls-3" points="91.03 55.17 117.91 81.95 117.91 91.55 124.68 98.12"/><polyline class="cls-3" points="97.58 36.43 80.69 53.24 80.69 72.39 100.73 72.39 103.13 69.99"/><path class="cls-3" d="M96.74,65.6" transform="translate(-0.02 0)"/><polyline class="cls-3" points="53.59 25.2 53.59 45.24 72.73 45.24 75.61 42.36"/><polyline class="cls-3" points="71.29 16.77 81.08 16.77 84.22 19.91"/><polyline class="cls-3" points="26.91 0.39 33.48 7.16 43.08 7.16 56 20.1"/></g></svg>