<svg id="Layer_1" data-name="Layer 1" xmlns="http://www.w3.org/2000/svg" viewBox="0 0 257.89 372.17"><defs><style>.cls-1{fill:#fff;}</style></defs><title>Axceso shape</title><path class="cls-1" d="M295,152c1.66,12.67,1.09,17.26,3.59,29.77,2.2,11,6.83,21.22,16.2,28.48a23.47,23.47,0,0,0,27,.94c7.41-4.87,11.88-12.07,15.63-19.73,9.48-19.35,13-40.07,13.36-61.41.2-10.52,2.63-20,10.6-27.58C393.69,90.77,413.24,91.81,425,105c10.94,12.28,9.31,32.76-3.56,42.88-7.84,6.16-16.56,11.35-23.74,18.18C370.51,192,358.83,224,363.09,261.35c4.41,38.64,24.62,67,58,86.51,7.57,4.42,16.08,7.85,22.42,13.64,13.49,12.33,16.37,28.39,10.39,45.29-5.53,15.63-17.24,24.93-33.82,27.53-24.52,3.85-41-13.22-49.21-30.47-6.4-13.46-8.33-27.88-9.28-42.6s-1.66-29.61-4.35-44.08c-1.56-8.36-5.71-16.82-10.65-23.85-10.48-14.92-29.45-14.44-40.58.16-10.46,13.72-15.75,29.64-18.48,46.36a282,282,0,0,0-3.05,32.73c-.76,16.73-13.93,30.54-30.08,30.77-16.49.24-30.75-12.77-31.18-29.43-.31-12.27,5.67-21.63,16.2-28a109.88,109.88,0,0,0,39-40,111.2,111.2,0,0,0,14.78-63.62c-1.94-31.86-15.33-57.92-38.92-78.73-7.14-6.3-15.64-11.33-24.14-15.74-9.6-5-18.78-10-24.66-19.52-15.58-25.33-1.29-56.26,24.17-63.79,19.54-5.79,37.47,2.71,48.47,18,9.63,13.36,13.94,28.55,15.29,44.74.46,5.46.86,10.93,1.28,16.4C294.22,143.7,295.4,152,295,152Z" transform="translate(-198.94 -62.7)"/></svg>