<svg id="Layer_1" data-name="Layer 1" xmlns="http://www.w3.org/2000/svg" viewBox="0 0 52 53"><defs><style>.cls-1{fill:#ECEDEE;}</style></defs><title>morename-white</title><g id="_9sGpId.tif" data-name=" 9sGpId.tif"><path style="fill: transparent;" d="M0,53V0H52V53ZM42.93,9.4c-1.2-.86-1.81-1.27-2.39-1.72A23.75,23.75,0,0,0,3.82,17.19c-2.18,5.11-2.07,5.27,3.52,5.27a3,3,0,0,1,.5,0c1.77.3,2.66-.51,3.38-2.12a19.92,19.92,0,0,1,3.07-4.84C19.88,9,31,8.7,36.67,15A50.82,50.82,0,0,0,33,18.66c-.52.61-1.07,1.83-.79,2.35a3.17,3.17,0,0,0,2.34,1.35c4.24.13,8.49.05,12.74.07,1.62,0,2.58-.77,2.6-2.37.06-4.41.09-8.83,0-13.24a2.88,2.88,0,0,0-1.38-2.08,2.48,2.48,0,0,0-2.16.64A50.32,50.32,0,0,0,42.93,9.4ZM14.74,37.7a48.6,48.6,0,0,0,4.16-3.59,2.87,2.87,0,0,0,.58-2.39,2.46,2.46,0,0,0-1.93-1.15c-4.41-.1-8.83-.06-13.24,0A2.08,2.08,0,0,0,2,32.82c0,4.41-.07,8.83.05,13.24a2.72,2.72,0,0,0,1.27,2.11,2.89,2.89,0,0,0,2.35-.76,39.89,39.89,0,0,0,3.17-3.58,81,81,0,0,0,7.25,4.4A23.5,23.5,0,0,0,48.8,32.3c.12-.47-.33-1.57-.56-1.59a25,25,0,0,0-6.2,0c-.76.14-1.35,1.72-1.83,2.73-4.53,9.69-17.14,12.06-25.47,4.27Z"/><path class="cls-1" d="M42.93,9.4a50.32,50.32,0,0,1,3.35-4,2.48,2.48,0,0,1,2.16-.64,2.88,2.88,0,0,1,1.38,2.08c.12,4.41.1,8.82,0,13.24,0,1.6-1,2.38-2.6,2.37-4.25,0-8.49.07-12.74-.07A3.17,3.17,0,0,1,32.14,21c-.27-.51.27-1.73.79-2.35,1.12-1.32,2.47-2.44,3.7-3.64C31,8.72,19.84,9,14.25,15.52a19.92,19.92,0,0,0-3.07,4.79c-.72,1.62-1.61,2.42-3.38,2.12a3,3,0,0,0-.5,0c-5.59,0-5.7-.15-3.52-5.27A23.75,23.75,0,0,1,40.5,7.65C41.12,8.13,41.73,8.5,42.93,9.4Z"/><path class="cls-1" d="M14.74,37.71c8.34,7.82,20.94,5.42,25.48-4.26.47-1,1.07-2.59,1.83-2.73a25,25,0,0,1,6.2,0c.24,0,.69,1.11.56,1.59A23.5,23.5,0,0,1,16,48.24a81,81,0,0,1-7.25-4.4,39.89,39.89,0,0,1-3.17,3.58,2.89,2.89,0,0,1-2.35.76A2.72,2.72,0,0,1,2,46.06c-.12-4.41-.06-8.83-.05-13.24A2.08,2.08,0,0,1,4.31,30.5c4.41,0,8.83-.06,13.24,0a2.46,2.46,0,0,1,1.93,1.15A2.87,2.87,0,0,1,18.9,34,48.6,48.6,0,0,1,14.74,37.71Z"/></g></svg>
