<svg id="Layer_1" data-name="Layer 1" xmlns="http://www.w3.org/2000/svg" viewBox="0 0 52 52.76"><defs><style>.cls-1{fill:#d3d801;}</style></defs><title>tick-brand</title><g id="ssPAp5.tif"><path class="cls-1" d="M0,31.71a5.53,5.53,0,0,1,1.65-2.53c1-1,2-2.1,3-3.14A2.75,2.75,0,0,1,9,26l9.66,10.18c.18.2.33.43.55.72l.54-.78,22-34.29C42.4.93,43.09.09,44.24.13a3.89,3.89,0,0,1,1.91.56c1.52,1,3,2.1,4.43,3.13A3.73,3.73,0,0,1,52,6.11v.42A16.3,16.3,0,0,1,51,8.7Q38.53,28.15,26,47.59c-.83,1.28-1.64,2.59-2.56,3.79a3.39,3.39,0,0,1-4.27,1.18,8.06,8.06,0,0,1-2.5-1.72C11.61,45.56,6.6,40.22,1.55,34.93A5.29,5.29,0,0,1,0,32.41Z" transform="translate(0 -0.13)"/></g></svg>