<svg xmlns="http://www.w3.org/2000/svg" viewBox="0 0 245 420">
    <defs>
        <style>.cls-1{fill:#778e9a;stroke:#f1f2f2;stroke-miterlimit:10;}</style>
    </defs>
    <title>mobileicon</title>
    <g id="Layer_2" data-name="Layer 2">
        <path class="cls-1"
              d="M310.83,46H121.17A27.17,27.17,0,0,0,94,73.17V437.83A27.17,27.17,0,0,0,121.17,465H310.83A27.17,27.17,0,0,0,338,437.83V73.17A27.17,27.17,0,0,0,310.83,46ZM180.75,60A4.26,4.26,0,0,1,185,55.75h62A4.26,4.26,0,0,1,251.25,60v1A4.26,4.26,0,0,1,247,65.25H185A4.26,4.26,0,0,1,180.75,61ZM216,454.33A17.33,17.33,0,1,1,233.33,437,17.33,17.33,0,0,1,216,454.33Zm104.54-41.91H111.46V77H320.54Z"
              transform="translate(-93.5 -45.5)"/>
    </g>
</svg>