<svg id="Layer_1" data-name="Layer 1" xmlns="http://www.w3.org/2000/svg" viewBox="0 0 125.03 125.03"><defs><style>.cls-1{fill:#0d1319;}.cls-2{opacity:0.15;}.cls-3{fill:none;stroke:#fff;stroke-miterlimit:10;}</style></defs><title>RS3_Corner-Embossing left</title><polygon class="cls-1" points="7.33 8.1 69.23 8.1 76.98 0.35 0.35 0.35 0.35 76.66 7.32 69.71 7.33 8.1"/><polygon class="cls-1" points="82.83 9.02 76.33 15.8 94.55 15.82 103.19 7.17 113.93 7.17 114.88 8.09 113.93 9 104.05 9 97.22 15.82 115.88 15.82 124.7 8.1 115.8 0.39 100.97 0.39 92.31 9.02 82.83 9.02"/><polygon class="cls-1" points="15.78 115.87 15.78 97.22 8.96 104.05 8.96 113.93 8.04 114.88 7.13 113.92 7.13 103.19 15.78 94.55 15.76 76.32 8.98 82.83 8.98 92.31 0.35 100.97 0.35 115.8 8.06 124.7 15.78 115.87"/><polygon class="cls-1" points="9.21 10.1 9.21 28.91 14.45 34.15 19.21 29.32 15.99 26.11 15.99 16.78 24.99 16.76 42.83 34.54 47.62 29.76 28.4 10.1 9.21 10.1"/><polygon class="cls-1" points="33.17 27.55 28.39 22.76 9.21 41.97 9.21 57.31 14.67 62.76 19.55 57.89 16.05 54.46 16 45.09 33.17 27.55"/><polygon class="cls-1" points="61.58 27.56 57.17 22.97 36.99 43.17 41.49 47.67 61.58 27.56"/><polygon class="cls-1" points="0.35 98.12 7.12 91.55 7.12 81.95 34 55.17 29.5 50.67 0.35 79.69 0.35 98.12"/><polyline class="cls-1" points="28.31 65.6 27.3 64.59 21.9 69.99 24.3 72.39 44.34 72.39 44.34 53.24 27.45 36.43 22.55 41.33 37.57 56.06 37.57 65.6"/><polygon class="cls-1" points="53.74 16.77 64.68 28.04 64.68 38.51 56.3 38.45 54.82 36.96 49.42 42.36 52.3 45.24 71.44 45.24 71.44 25.2 56.48 9.99 41.14 9.99 36.02 15.11 40.81 19.91 43.95 16.77 53.74 16.77"/><polygon class="cls-1" points="69.03 20.1 81.95 7.16 91.55 7.16 98.12 0.39 79.7 0.39 64.61 15.52 69.03 20.1"/><g class="cls-2"><polyline class="cls-3" points="0.35 76.66 7.32 69.71 7.33 8.1 69.23 8.1 76.98 0.35"/><polyline class="cls-3" points="97.22 15.82 115.88 15.82 124.7 8.1"/><polyline class="cls-3" points="76.33 15.8 94.55 15.82 103.19 7.17 113.93 7.17 114.88 8.09"/><polyline class="cls-3" points="8.04 114.88 7.13 113.92 7.13 103.19 15.78 94.55 15.76 76.32"/><polyline class="cls-3" points="8.06 124.7 15.78 115.87 15.78 97.22"/><line class="cls-3" x1="42.83" y1="34.54" x2="47.61" y2="29.76"/><polyline class="cls-3" points="14.45 34.15 19.21 29.32 15.99 26.11 15.99 16.78 24.99 16.76"/><polyline class="cls-3" points="14.67 62.76 19.55 57.89 16.05 54.46 16 45.09 33.17 27.55"/><line class="cls-3" x1="41.49" y1="47.67" x2="61.58" y2="27.56"/><polyline class="cls-3" points="0.35 98.12 7.12 91.55 7.12 81.95 34 55.17"/><polyline class="cls-3" points="21.9 69.99 24.3 72.39 44.34 72.39 44.34 53.24 27.45 36.43"/><path class="cls-3" d="M28.31,65.6" transform="translate(0 0)"/><polyline class="cls-3" points="49.42 42.36 52.3 45.24 71.44 45.24 71.44 25.2"/><polyline class="cls-3" points="40.81 19.91 43.95 16.77 53.74 16.77"/><polyline class="cls-3" points="69.03 20.1 81.95 7.16 91.55 7.16 98.12 0.39"/></g></svg>